<svg version="1" xmlns="http://www.w3.org/2000/svg" width="693.333" height="693.333" viewBox="0 0 520.000000 520.000000"><path d="M189 53.7C149.4 55.5 118.4 65 103 80c-9.6 9.4-13.9 18.8-15.9 35.6-2 16.7.8 29.8 11.4 51.9 7.6 16 9.2 22.2 7.6 29.2-3 12.2-11.8 21.8-40.5 44.2-21.1 16.4-30.9 25.6-36.7 34.4-7.2 11-10.3 25.4-9.8 44.9l.4 11.8-6.7 2.2c-9 2.9-12.2 5.5-12.1 9.9.2 5.3 4 15.2 6.8 17.6 3.2 2.8 4.5 2.8 13 .2 3.7-1.1 6.8-1.9 7-1.7.1.2 1.9 3.7 4 7.8 8.4 16.9 21.2 33.6 33.3 43.6 7.8 6.4 21.6 13.7 35.7 18.8 5.5 2 13.8 5.4 18.5 7.5 26.1 11.8 57.9 19.8 102 25.6 28.9 3.8 70.8 3.6 96.8-.5 31.8-5.1 63.6-15.6 85.2-28.1l4.5-2.6 4.9 2.3c2.7 1.3 7.9 3 11.5 3.9 3.6.9 7.7 2.3 9.1 3.1 14.6 8.5 24.5 11.4 38.2 11.5 5.3 0 12.2-.5 15.3-1.2l5.5-1.2-10.5-10.6c-5.8-5.8-13.2-14.2-16.5-18.6-6.2-8.3-14-22.7-14-25.9 0-1 1.7-4.6 3.9-8 8.7-13.9 12.9-25 16.2-43.3 5.5-31 2.7-66.7-7.5-93.7-1.4-3.7-2.6-7.4-2.6-8.1 0-1.5 7.5-5.5 16.5-8.8 24.8-9 30.6-11.3 35.9-14.5 3.3-2 5.5-3.7 4.9-3.9-1.1-.4-12.5 2.3-37.3 8.7-9.1 2.3-17.8 4-21.2 4-5.3 0-5.7-.2-7.7-3.4-1.2-1.8-2.1-3.6-2.1-3.8 0-.3 4.8-2.2 10.8-4.3 27.4-9.6 37.6-17 31.6-23-1.9-1.9-3.2-1.7-24.4 3.8-31.1 7.9-28 7.4-29.9 5.1-.9-1.2-4.5-5.9-8.1-10.5-13.6-17.6-43.9-45.8-75.5-70.4-38.6-29.9-47.4-35.8-69.5-46.9-23.8-11.8-48.2-18.7-71.4-20.1-5-.3-11.1-.7-13.6-.8-2.5-.2-7.4-.2-11 0zm23 5.3c32.4 2.9 62.5 13.2 91.7 31.3 5 3.2 15.4 10.4 23 16.1 41.5 31.2 76.5 67.6 91.9 95.5l4.9 8.8 7.5-.5c4.1-.2 11.8-1.5 17-2.9 28.9-7.5 39.6-10 40-9.6 1.7 1.6-13.1 8.7-31.6 15.2-12.4 4.3-21 8-25.2 10.9-1 .7-.9 2 .9 6.3 9 22.6 13.2 51.9 11.1 76.3-2.8 30.6-8.2 48.7-19.6 65.4L420 377l2.4 6c5.2 12.8 13.1 23.6 28.9 39.7l10.1 10.2-3 1.2c-4.9 2-27.8 1.7-34.8-.4-11.5-3.6-25.6-11.8-32.1-18.7-5.2-5.5-5.9-5.6-12.8-1.2-35.5 22.4-86.6 35.2-140.6 35.2-47.9 0-109-11.3-145.1-26.9-18.4-7.9-29.1-16-40.4-30.5-11.3-14.5-23.3-36.4-21-38.5.5-.5 5.9-2.5 12.1-4.4 6.1-2 35.8-11.7 66-21.6 30.1-9.9 65.4-21.4 78.3-25.5 23-7.3 33.8-10.7 59-18.8 6.9-2.2 21.5-6.8 32.5-10.3 11-3.5 29.9-9.5 42-13.3 12.1-3.9 33.3-10.3 47-14.2 36.5-10.4 60.6-18.9 60.5-21.4-.1-.6-1.3-3.6-2.9-6.6-2.1-4.1-3.3-5.4-4.7-5.2-4.5.7-18.2 4.5-27.7 7.6-21.6 7.2-63 20.5-95.7 30.8-5.2 1.6-11.5 3.7-14 4.5-2.5.8-7.9 2.5-12 3.8-4.1 1.3-13.1 4.1-20 6.3-22 7.1-38 12.2-58.5 18.7-21 6.6-74.7 23.7-104.5 33.2-9.6 3.1-24.2 7.6-32.5 10-8.2 2.4-17.9 5.2-21.5 6.3-3.6 1.1-7.1 2-7.8 2-1.6 0-1.5 1.4.8 9.5 1.1 3.8 2 7.5 2 8.1 0 .9-15.8 6.5-18.2 6.4-1.4 0-4.8-7.9-5.4-12.3-.6-4.2-.6-4.3 3.2-5.9 2.2-.9 6.4-2.5 9.4-3.5l5.5-1.9-.3-15.9c-.3-14.2 0-17 2.1-25.2 4.7-18 11.9-26.2 47.4-53.7 30.5-23.7 40.5-38.3 37.2-54.5-.6-3.1-4-11.8-7.6-19.4-8.1-17.4-9.8-22.2-11.4-33.5-1.1-7.8-1.1-10.7.3-19.6 2.1-14.2 5.8-21.9 14.3-30.1 13.5-13 34.4-20.3 69.5-24 16.1-1.6 21.9-1.7 36-.5z"/><path d="M366 322.4c-16.5 4.7-23 11.1-23 22.7 0 12.1 4.5 20 13.8 24.6 4.9 2.4 6.9 2.8 14.2 2.8 13.4 0 24.5-5.4 29.8-14.4 6.4-10.9.7-28.7-11.1-34.6-4.1-2-6.5-2.5-12.1-2.4-3.9 0-9.1.6-11.6 1.3z"/></svg>